<svg width="609" height="609" viewBox="0 0 609 609" fill="none" xmlns="http://www.w3.org/2000/svg">
<rect width="609" height="609" rx="70" fill="white"/>
<path d="M81.436 528.448C77.3161 528.448 73.7258 527.977 70.6653 527.035C67.6048 526.094 65.0739 524.622 63.0728 522.621C61.0717 520.502 59.5414 517.795 58.482 514.499C57.5403 511.203 57.0695 507.201 57.0695 502.492V421.624H69.7825V500.727C69.7825 502.963 69.959 505.082 70.3122 507.083C70.6653 509.084 71.3127 510.85 72.2544 512.38C73.1961 513.793 74.5498 514.911 76.3155 515.735C78.0812 516.559 80.4355 516.971 83.3783 516.971C84.32 516.971 85.3794 516.971 86.5565 516.971C87.8514 516.853 89.1462 516.677 90.441 516.441V527.742C88.7931 527.977 87.2039 528.154 85.6737 528.271C84.1434 528.389 82.7309 528.448 81.436 528.448ZM43.8268 461.352V449.875H89.7348V461.352H43.8268ZM170.075 527.565V507.966L169.369 505.317V473.005L170.075 471.769V449.875H182.082V471.769V473.005V527.565H170.075ZM141.824 528.978C136.88 528.978 132.113 528.095 127.522 526.329C122.931 524.446 118.929 521.797 115.515 518.384C112.102 514.852 109.335 510.615 107.216 505.671C105.215 500.609 104.215 494.959 104.215 488.72C104.215 482.481 105.157 476.89 107.04 471.946C109.041 467.002 111.748 462.823 115.162 459.409C118.576 455.878 122.578 453.171 127.169 451.287C131.76 449.404 136.645 448.462 141.824 448.462C146.062 448.462 149.887 448.992 153.301 450.051C156.715 451.111 159.658 452.523 162.13 454.289C164.601 456.055 166.603 458.056 168.133 460.292C169.663 462.411 170.605 464.53 170.958 466.649V487.484H169.369C169.369 483.953 168.78 480.539 167.603 477.243C166.544 473.947 164.896 471.063 162.659 468.591C160.54 466.119 157.833 464.118 154.537 462.588C151.359 461.057 147.651 460.292 143.413 460.292C139.764 460.292 136.35 460.94 133.172 462.235C129.994 463.412 127.228 465.236 124.873 467.708C122.519 470.062 120.695 473.005 119.4 476.537C118.105 480.068 117.458 484.07 117.458 488.543C117.458 492.781 118.046 496.666 119.223 500.197C120.518 503.728 122.284 506.789 124.52 509.379C126.757 511.851 129.464 513.793 132.642 515.205C135.821 516.5 139.293 517.148 143.06 517.148C147.298 517.148 151.065 516.382 154.36 514.852C157.656 513.204 160.364 511.085 162.483 508.496C164.719 505.788 166.426 502.787 167.603 499.491C168.78 496.077 169.369 492.663 169.369 489.25H171.841V507.966C171.252 510.909 170.075 513.675 168.309 516.265C166.544 518.737 164.366 520.914 161.776 522.798C159.187 524.681 156.185 526.211 152.771 527.389C149.358 528.448 145.709 528.978 141.824 528.978ZM231.454 529.331C228.158 529.331 225.038 529.037 222.095 528.448C219.27 527.859 216.563 527.035 213.973 525.976C211.384 524.799 208.912 523.445 206.557 521.915C204.321 520.267 202.202 518.442 200.201 516.441L207.264 507.26C210.324 510.673 213.856 513.322 217.858 515.205C221.86 516.971 226.333 517.854 231.277 517.854C233.867 517.854 236.28 517.618 238.516 517.148C240.753 516.559 242.636 515.735 244.167 514.676C245.815 513.616 247.051 512.38 247.875 510.968C248.816 509.437 249.287 507.731 249.287 505.847C249.287 502.787 248.169 500.432 245.932 498.784C243.813 497.019 241.106 495.606 237.81 494.547C234.514 493.37 230.924 492.31 227.039 491.369C223.155 490.427 219.565 489.191 216.269 487.661C212.973 486.013 210.206 483.835 207.97 481.127C205.851 478.42 204.792 474.83 204.792 470.357C204.792 466.59 205.557 463.353 207.087 460.645C208.617 457.82 210.677 455.466 213.267 453.583C215.974 451.699 219.094 450.346 222.625 449.522C226.274 448.58 230.1 448.109 234.102 448.109C237.163 448.109 239.988 448.403 242.577 448.992C245.167 449.463 247.521 450.169 249.64 451.111C251.759 451.935 253.642 452.935 255.29 454.112C256.938 455.172 258.469 456.29 259.881 457.467L252.465 467.002C250.229 464.883 247.639 463.117 244.696 461.705C241.753 460.292 238.163 459.586 233.926 459.586C228.746 459.586 224.685 460.528 221.742 462.411C218.917 464.177 217.505 466.531 217.505 469.474C217.505 472.417 218.564 474.653 220.683 476.184C222.919 477.714 225.686 478.95 228.982 479.892C232.278 480.833 235.868 481.775 239.752 482.717C243.637 483.541 247.227 484.777 250.523 486.425C253.819 487.955 256.526 490.133 258.645 492.958C260.882 495.783 262 499.667 262 504.611C262 508.731 261.176 512.38 259.528 515.558C257.88 518.619 255.644 521.209 252.818 523.328C250.111 525.329 246.874 526.8 243.107 527.742C239.458 528.801 235.574 529.331 231.454 529.331ZM329.658 527.565L294.521 486.954L323.654 449.875H337.25V451.64L304.408 491.545V479.715L344.313 525.799V527.565H329.658ZM289.577 491.369V480.598H304.762V491.369H289.577ZM280.748 527.565V507.966V505.317V473.005V471.769V403.967H293.461V471.769V473.005V527.565H280.748ZM389.497 528.978C383.729 528.978 378.373 528.036 373.429 526.153C368.603 524.269 364.365 521.621 360.716 518.207C357.185 514.676 354.36 510.438 352.241 505.494C350.24 500.55 349.239 494.959 349.239 488.72C349.239 482.246 350.298 476.537 352.417 471.593C354.654 466.531 357.597 462.293 361.246 458.88C365.013 455.466 369.25 452.876 373.959 451.111C378.785 449.345 383.788 448.462 388.967 448.462C394.97 448.462 400.268 449.58 404.858 451.817C409.567 453.936 413.51 456.82 416.688 460.469C419.867 464.118 422.28 468.238 423.928 472.829C425.576 477.302 426.4 481.951 426.4 486.778V491.192H357.714V480.421H420.926L413.687 489.603V485.718C413.687 482.069 413.039 478.714 411.745 475.654C410.45 472.476 408.625 469.768 406.271 467.532C403.917 465.177 401.15 463.353 397.972 462.058C394.912 460.645 391.498 459.939 387.731 459.939C384.082 459.939 380.668 460.645 377.49 462.058C374.312 463.353 371.546 465.236 369.191 467.708C366.955 470.18 365.189 473.182 363.894 476.713C362.599 480.127 361.952 484.011 361.952 488.367C361.952 492.84 362.658 496.901 364.071 500.55C365.483 504.081 367.426 507.142 369.898 509.732C372.487 512.204 375.489 514.146 378.903 515.558C382.434 516.853 386.201 517.501 390.203 517.501C395.147 517.501 399.738 516.559 403.975 514.676C408.331 512.675 411.803 509.967 414.393 506.553L422.692 514.146C418.925 519.208 414.04 522.974 408.037 525.446C402.151 527.801 395.971 528.978 389.497 528.978ZM478.573 448.815C479.515 448.815 480.633 448.874 481.928 448.992C483.341 448.992 484.518 449.11 485.459 449.345V462.058C484.047 461.823 482.575 461.646 481.045 461.528C479.633 461.293 478.22 461.175 476.807 461.175C473.158 461.175 470.216 461.823 467.979 463.117C465.742 464.295 463.977 466.001 462.682 468.238C461.505 470.474 460.74 473.123 460.387 476.184C460.033 479.244 459.857 482.599 459.857 486.248V527.565H447.144V449.875H459.151V473.005L456.502 467.708C456.855 466.06 457.444 464.177 458.268 462.058C459.209 459.821 460.504 457.762 462.152 455.878C463.8 453.877 465.919 452.229 468.509 450.934C471.216 449.522 474.571 448.815 478.573 448.815ZM512.283 569.942V568.176L556.778 449.875H569.138V451.64L524.643 569.942H512.283ZM529.587 530.214L495.862 451.64V449.875H509.104L535.943 513.44L529.587 530.214Z" fill="black"/>
<circle cx="117.5" cy="126.5" r="70.5" fill="#FF6200"/>
</svg>
